<?xml version="1.0" ?><svg width="512px" height="512px" viewBox="0 0 512 512" style="enable-background:new 0 0 512 512;" version="1.1" xml:space="preserve" xmlns="http://www.w3.org/2000/svg" xmlns:xlink="http://www.w3.org/1999/xlink"><style type="text/css">
	.st0{fill:#65a30d;}
	.st1{fill:#15803d;}
</style><g id="Layer_1"/><g id="Layer_2"><g><rect class="st1" height="32.7" width="87.8" x="41" y="388"/><rect class="st1" height="32.7" width="87.8" x="41" y="328.7"/><rect class="st1" height="32.7" width="87.8" x="41" y="269.3"/><rect class="st1" height="32.7" width="87.8" x="41" y="210"/><rect class="st0" height="32.7" width="87.8" x="155.1" y="388"/><rect class="st0" height="32.7" width="87.8" x="155.1" y="328.7"/><rect class="st0" height="32.7" width="87.8" x="155.1" y="269.3"/><rect class="st1" height="32.7" width="87.8" x="269.2" y="388"/><rect class="st1" height="32.7" width="87.8" x="269.2" y="328.7"/><rect class="st1" height="32.7" width="87.8" x="269.2" y="269.3"/><rect class="st1" height="32.7" width="87.8" x="269.2" y="210"/><rect class="st0" height="32.7" width="87.8" x="383.2" y="388"/><rect class="st0" height="32.7" width="87.8" x="383.2" y="328.7"/><rect class="st0" height="32.7" width="87.8" x="383.2" y="269.3"/><rect class="st0" height="32.7" width="87.8" x="383.2" y="210"/><rect class="st0" height="32.7" width="87.8" x="383.2" y="150.7"/><rect class="st0" height="32.7" width="87.8" x="383.2" y="91.3"/></g></g></svg>
